solid OpenSCAD_Model
  facet normal 0.978148 -0.207912 0
    outer loop
      vertex 4.33934 -1.932 25.25
      vertex 4.75 0 13
      vertex 4.75 0 25.25
    endloop
  endfacet
  facet normal 0.978148 -0.207912 0
    outer loop
      vertex 4.75 0 13
      vertex 4.33934 -1.932 25.25
      vertex 4.33934 -1.932 13
    endloop
  endfacet
  facet normal -1 0 0
    outer loop
      vertex -4.6462 -0.98758 13
      vertex -4.6462 0.98758 25.25
      vertex -4.6462 0.98758 13
    endloop
  endfacet
  facet normal -1 -0 0
    outer loop
      vertex -4.6462 0.98758 25.25
      vertex -4.6462 -0.98758 13
      vertex -4.6462 -0.98758 25.25
    endloop
  endfacet
  facet normal 0.104528 -0.994522 0
    outer loop
      vertex -0.49651 -4.72398 13
      vertex 1.46783 -4.51752 25.25
      vertex -0.49651 -4.72398 25.25
    endloop
  endfacet
  facet normal 0.104528 -0.994522 0
    outer loop
      vertex 1.46783 -4.51752 25.25
      vertex -0.49651 -4.72398 13
      vertex 1.46783 -4.51752 13
    endloop
  endfacet
  facet normal 0.809017 -0.587785 0
    outer loop
      vertex 3.17837 -3.52994 25.25
      vertex 4.33934 -1.932 13
      vertex 4.33934 -1.932 25.25
    endloop
  endfacet
  facet normal 0.809017 -0.587785 0
    outer loop
      vertex 4.33934 -1.932 13
      vertex 3.17837 -3.52994 25.25
      vertex 3.17837 -3.52994 13
    endloop
  endfacet
  facet normal 0.5 -0.866026 0
    outer loop
      vertex 1.46783 -4.51752 13
      vertex 3.17837 -3.52994 25.25
      vertex 1.46783 -4.51752 25.25
    endloop
  endfacet
  facet normal 0.5 -0.866026 0
    outer loop
      vertex 3.17837 -3.52994 25.25
      vertex 1.46783 -4.51752 13
      vertex 3.17837 -3.52994 13
    endloop
  endfacet
  facet normal -0.309018 -0.951056 0
    outer loop
      vertex -2.375 -4.11362 13
      vertex -0.49651 -4.72398 25.25
      vertex -2.375 -4.11362 25.25
    endloop
  endfacet
  facet normal -0.309018 -0.951056 -0
    outer loop
      vertex -0.49651 -4.72398 25.25
      vertex -2.375 -4.11362 13
      vertex -0.49651 -4.72398 13
    endloop
  endfacet
  facet normal -0.669131 -0.743145 0
    outer loop
      vertex -3.84283 -2.79198 13
      vertex -2.375 -4.11362 25.25
      vertex -3.84283 -2.79198 25.25
    endloop
  endfacet
  facet normal -0.669131 -0.743145 -0
    outer loop
      vertex -2.375 -4.11362 25.25
      vertex -3.84283 -2.79198 13
      vertex -2.375 -4.11362 13
    endloop
  endfacet
  facet normal 0.978148 0.207912 0
    outer loop
      vertex 4.75 0 25.25
      vertex 4.33934 1.932 13
      vertex 4.33934 1.932 25.25
    endloop
  endfacet
  facet normal 0.978148 0.207912 0
    outer loop
      vertex 4.33934 1.932 13
      vertex 4.75 0 25.25
      vertex 4.75 0 13
    endloop
  endfacet
  facet normal -0.913546 0.406736 0
    outer loop
      vertex -4.6462 0.98758 13
      vertex -3.84283 2.79198 25.25
      vertex -3.84283 2.79198 13
    endloop
  endfacet
  facet normal -0.913546 0.406736 0
    outer loop
      vertex -3.84283 2.79198 25.25
      vertex -4.6462 0.98758 13
      vertex -4.6462 0.98758 25.25
    endloop
  endfacet
  facet normal 0 0 1
    outer loop
      vertex 4.75 0 13
      vertex 12 0 13
      vertex 11.7378 2.49494 13
    endloop
  endfacet
  facet normal 0 0 1
    outer loop
      vertex 4.33934 1.932 13
      vertex 11.7378 2.49494 13
      vertex 10.9625 4.88084 13
    endloop
  endfacet
  facet normal 0 0 1
    outer loop
      vertex 12 0 13
      vertex 4.75 0 13
      vertex 11.7378 -2.49494 13
    endloop
  endfacet
  facet normal 0 0 1
    outer loop
      vertex 4.33934 1.932 13
      vertex 10.9625 4.88084 13
      vertex 9.7082 7.05342 13
    endloop
  endfacet
  facet normal -0 0 1
    outer loop
      vertex 4.33934 -1.932 13
      vertex 11.7378 -2.49494 13
      vertex 4.75 0 13
    endloop
  endfacet
  facet normal 0 0 1
    outer loop
      vertex 3.17837 3.52994 13
      vertex 9.7082 7.05342 13
      vertex 8.02957 8.91774 13
    endloop
  endfacet
  facet normal 0 0 1
    outer loop
      vertex 11.7378 -2.49494 13
      vertex 4.33934 -1.932 13
      vertex 10.9625 -4.88084 13
    endloop
  endfacet
  facet normal 0 0 1
    outer loop
      vertex 3.17837 3.52994 13
      vertex 8.02957 8.91774 13
      vertex 6 10.3923 13
    endloop
  endfacet
  facet normal 0 0 1
    outer loop
      vertex 10.9625 -4.88084 13
      vertex 4.33934 -1.932 13
      vertex 9.7082 -7.05342 13
    endloop
  endfacet
  facet normal -0 0 1
    outer loop
      vertex 3.17837 -3.52994 13
      vertex 9.7082 -7.05342 13
      vertex 4.33934 -1.932 13
    endloop
  endfacet
  facet normal 0 0 1
    outer loop
      vertex 11.7378 2.49494 13
      vertex 4.33934 1.932 13
      vertex 4.75 0 13
    endloop
  endfacet
  facet normal 0 0 1
    outer loop
      vertex 1.46783 4.51752 13
      vertex 6 10.3923 13
      vertex 3.7082 11.4127 13
    endloop
  endfacet
  facet normal 0 0 1
    outer loop
      vertex 9.7082 7.05342 13
      vertex 3.17837 3.52994 13
      vertex 4.33934 1.932 13
    endloop
  endfacet
  facet normal 0 0 1
    outer loop
      vertex 6 10.3923 13
      vertex 1.46783 4.51752 13
      vertex 3.17837 3.52994 13
    endloop
  endfacet
  facet normal 0 0 1
    outer loop
      vertex 1.25434 11.9343 13
      vertex 1.46783 4.51752 13
      vertex 3.7082 11.4127 13
    endloop
  endfacet
  facet normal 0 0 1
    outer loop
      vertex 1.25434 11.9343 13
      vertex -0.49651 4.72398 13
      vertex 1.46783 4.51752 13
    endloop
  endfacet
  facet normal -0 0 1
    outer loop
      vertex -1.25434 11.9343 13
      vertex -0.49651 4.72398 13
      vertex 1.25434 11.9343 13
    endloop
  endfacet
  facet normal -0 0 1
    outer loop
      vertex -3.7082 11.4127 13
      vertex -0.49651 4.72398 13
      vertex -1.25434 11.9343 13
    endloop
  endfacet
  facet normal 0 0 1
    outer loop
      vertex -0.49651 4.72398 13
      vertex -3.7082 11.4127 13
      vertex -2.375 4.11362 13
    endloop
  endfacet
  facet normal -0 0 1
    outer loop
      vertex -6 10.3923 13
      vertex -2.375 4.11362 13
      vertex -3.7082 11.4127 13
    endloop
  endfacet
  facet normal -0 0 1
    outer loop
      vertex -8.02957 8.91774 13
      vertex -2.375 4.11362 13
      vertex -6 10.3923 13
    endloop
  endfacet
  facet normal -0 0 1
    outer loop
      vertex -9.7082 7.05342 13
      vertex -3.84283 2.79198 13
      vertex -8.02957 8.91774 13
    endloop
  endfacet
  facet normal 0 0 1
    outer loop
      vertex -2.375 4.11362 13
      vertex -8.02957 8.91774 13
      vertex -3.84283 2.79198 13
    endloop
  endfacet
  facet normal 0 0 1
    outer loop
      vertex 9.7082 -7.05342 13
      vertex 3.17837 -3.52994 13
      vertex 8.02957 -8.91774 13
    endloop
  endfacet
  facet normal 0 0 1
    outer loop
      vertex 8.02957 -8.91774 13
      vertex 3.17837 -3.52994 13
      vertex 6 -10.3923 13
    endloop
  endfacet
  facet normal -0 0 1
    outer loop
      vertex 1.46783 -4.51752 13
      vertex 6 -10.3923 13
      vertex 3.17837 -3.52994 13
    endloop
  endfacet
  facet normal 0 0 1
    outer loop
      vertex 6 -10.3923 13
      vertex 1.46783 -4.51752 13
      vertex 3.7082 -11.4127 13
    endloop
  endfacet
  facet normal 0 0 1
    outer loop
      vertex 1.46783 -4.51752 13
      vertex 1.25434 -11.9343 13
      vertex 3.7082 -11.4127 13
    endloop
  endfacet
  facet normal -0 0 1
    outer loop
      vertex -0.49651 -4.72398 13
      vertex 1.25434 -11.9343 13
      vertex 1.46783 -4.51752 13
    endloop
  endfacet
  facet normal 0 0 1
    outer loop
      vertex -0.49651 -4.72398 13
      vertex -1.25434 -11.9343 13
      vertex 1.25434 -11.9343 13
    endloop
  endfacet
  facet normal 0 0 1
    outer loop
      vertex -3.7082 -11.4127 13
      vertex -0.49651 -4.72398 13
      vertex -2.375 -4.11362 13
    endloop
  endfacet
  facet normal 0 0 1
    outer loop
      vertex -0.49651 -4.72398 13
      vertex -3.7082 -11.4127 13
      vertex -1.25434 -11.9343 13
    endloop
  endfacet
  facet normal 0 0 1
    outer loop
      vertex -8.02957 -8.91774 13
      vertex -2.375 -4.11362 13
      vertex -3.84283 -2.79198 13
    endloop
  endfacet
  facet normal 0 0 1
    outer loop
      vertex -10.9625 -4.88084 13
      vertex -3.84283 -2.79198 13
      vertex -4.6462 -0.98758 13
    endloop
  endfacet
  facet normal -0 0 1
    outer loop
      vertex -10.9625 4.88084 13
      vertex -3.84283 2.79198 13
      vertex -9.7082 7.05342 13
    endloop
  endfacet
  facet normal 0 0 1
    outer loop
      vertex -2.375 -4.11362 13
      vertex -6 -10.3923 13
      vertex -3.7082 -11.4127 13
    endloop
  endfacet
  facet normal 0 0 1
    outer loop
      vertex -3.84283 2.79198 13
      vertex -10.9625 4.88084 13
      vertex -4.6462 0.98758 13
    endloop
  endfacet
  facet normal 0 0 1
    outer loop
      vertex -2.375 -4.11362 13
      vertex -8.02957 -8.91774 13
      vertex -6 -10.3923 13
    endloop
  endfacet
  facet normal -0 0 1
    outer loop
      vertex -11.7378 2.49494 13
      vertex -4.6462 0.98758 13
      vertex -10.9625 4.88084 13
    endloop
  endfacet
  facet normal 0 0 1
    outer loop
      vertex -3.84283 -2.79198 13
      vertex -9.7082 -7.05342 13
      vertex -8.02957 -8.91774 13
    endloop
  endfacet
  facet normal 0 0 1
    outer loop
      vertex -12 0 13
      vertex -4.6462 0.98758 13
      vertex -11.7378 2.49494 13
    endloop
  endfacet
  facet normal 0 0 1
    outer loop
      vertex -3.84283 -2.79198 13
      vertex -10.9625 -4.88084 13
      vertex -9.7082 -7.05342 13
    endloop
  endfacet
  facet normal 0 0 1
    outer loop
      vertex -4.6462 0.98758 13
      vertex -12 0 13
      vertex -4.6462 -0.98758 13
    endloop
  endfacet
  facet normal 0 0 1
    outer loop
      vertex -4.6462 -0.98758 13
      vertex -11.7378 -2.49494 13
      vertex -10.9625 -4.88084 13
    endloop
  endfacet
  facet normal 0 0 1
    outer loop
      vertex -4.6462 -0.98758 13
      vertex -12 0 13
      vertex -11.7378 -2.49494 13
    endloop
  endfacet
  facet normal -0.913546 -0.406736 0
    outer loop
      vertex -3.84283 -2.79198 13
      vertex -4.6462 -0.98758 25.25
      vertex -4.6462 -0.98758 13
    endloop
  endfacet
  facet normal -0.913546 -0.406736 0
    outer loop
      vertex -4.6462 -0.98758 25.25
      vertex -3.84283 -2.79198 13
      vertex -3.84283 -2.79198 25.25
    endloop
  endfacet
  facet normal 0.5 0.866026 -0
    outer loop
      vertex 3.17837 3.52994 13
      vertex 1.46783 4.51752 25.25
      vertex 3.17837 3.52994 25.25
    endloop
  endfacet
  facet normal 0.5 0.866026 0
    outer loop
      vertex 1.46783 4.51752 25.25
      vertex 3.17837 3.52994 13
      vertex 1.46783 4.51752 13
    endloop
  endfacet
  facet normal 0.809017 0.587785 0
    outer loop
      vertex 4.33934 1.932 25.25
      vertex 3.17837 3.52994 13
      vertex 3.17837 3.52994 25.25
    endloop
  endfacet
  facet normal 0.809017 0.587785 0
    outer loop
      vertex 3.17837 3.52994 13
      vertex 4.33934 1.932 25.25
      vertex 4.33934 1.932 13
    endloop
  endfacet
  facet normal 0 0 1
    outer loop
      vertex 4.33934 1.932 25.25
      vertex 4.33934 -1.932 25.25
      vertex 4.75 0 25.25
    endloop
  endfacet
  facet normal 0 0 1
    outer loop
      vertex 3.17837 3.52994 25.25
      vertex 4.33934 -1.932 25.25
      vertex 4.33934 1.932 25.25
    endloop
  endfacet
  facet normal 0 0 1
    outer loop
      vertex 3.17837 3.52994 25.25
      vertex 3.17837 -3.52994 25.25
      vertex 4.33934 -1.932 25.25
    endloop
  endfacet
  facet normal 0 0 1
    outer loop
      vertex 1.46783 4.51752 25.25
      vertex 3.17837 -3.52994 25.25
      vertex 3.17837 3.52994 25.25
    endloop
  endfacet
  facet normal 0 0 1
    outer loop
      vertex 1.46783 4.51752 25.25
      vertex 1.46783 -4.51752 25.25
      vertex 3.17837 -3.52994 25.25
    endloop
  endfacet
  facet normal 0 0 1
    outer loop
      vertex -0.49651 4.72398 25.25
      vertex 1.46783 -4.51752 25.25
      vertex 1.46783 4.51752 25.25
    endloop
  endfacet
  facet normal 0 0 1
    outer loop
      vertex -0.49651 4.72398 25.25
      vertex -0.49651 -4.72398 25.25
      vertex 1.46783 -4.51752 25.25
    endloop
  endfacet
  facet normal -0 0 1
    outer loop
      vertex -2.375 4.11362 25.25
      vertex -0.49651 -4.72398 25.25
      vertex -0.49651 4.72398 25.25
    endloop
  endfacet
  facet normal 0 0 1
    outer loop
      vertex -2.375 4.11362 25.25
      vertex -2.375 -4.11362 25.25
      vertex -0.49651 -4.72398 25.25
    endloop
  endfacet
  facet normal -0 0 1
    outer loop
      vertex -3.84283 2.79198 25.25
      vertex -2.375 -4.11362 25.25
      vertex -2.375 4.11362 25.25
    endloop
  endfacet
  facet normal 0 0 1
    outer loop
      vertex -3.84283 2.79198 25.25
      vertex -3.84283 -2.79198 25.25
      vertex -2.375 -4.11362 25.25
    endloop
  endfacet
  facet normal -0 0 1
    outer loop
      vertex -4.6462 0.98758 25.25
      vertex -3.84283 -2.79198 25.25
      vertex -3.84283 2.79198 25.25
    endloop
  endfacet
  facet normal 0 0 1
    outer loop
      vertex -3.84283 -2.79198 25.25
      vertex -4.6462 0.98758 25.25
      vertex -4.6462 -0.98758 25.25
    endloop
  endfacet
  facet normal -0.669131 0.743145 0
    outer loop
      vertex -2.375 4.11362 13
      vertex -3.84283 2.79198 25.25
      vertex -2.375 4.11362 25.25
    endloop
  endfacet
  facet normal -0.669131 0.743145 0
    outer loop
      vertex -3.84283 2.79198 25.25
      vertex -2.375 4.11362 13
      vertex -3.84283 2.79198 13
    endloop
  endfacet
  facet normal 0.104528 0.994522 -0
    outer loop
      vertex 1.46783 4.51752 13
      vertex -0.49651 4.72398 25.25
      vertex 1.46783 4.51752 25.25
    endloop
  endfacet
  facet normal 0.104528 0.994522 0
    outer loop
      vertex -0.49651 4.72398 25.25
      vertex 1.46783 4.51752 13
      vertex -0.49651 4.72398 13
    endloop
  endfacet
  facet normal -0.309018 0.951056 0
    outer loop
      vertex -0.49651 4.72398 13
      vertex -2.375 4.11362 25.25
      vertex -0.49651 4.72398 25.25
    endloop
  endfacet
  facet normal -0.309018 0.951056 0
    outer loop
      vertex -2.375 4.11362 25.25
      vertex -0.49651 4.72398 13
      vertex -2.375 4.11362 13
    endloop
  endfacet
  facet normal 0.866032 -0.499988 0
    outer loop
      vertex 9.7082 -7.05342 13
      vertex 10.9625 -4.88084 3
      vertex 10.9625 -4.88084 13
    endloop
  endfacet
  facet normal 0.866032 -0.499988 0
    outer loop
      vertex 10.9625 -4.88084 3
      vertex 9.7082 -7.05342 13
      vertex 9.7082 -7.05342 3
    endloop
  endfacet
  facet normal -0.951048 -0.309044 0
    outer loop
      vertex -10.9625 -4.88084 3
      vertex -11.7378 -2.49494 13
      vertex -11.7378 -2.49494 3
    endloop
  endfacet
  facet normal -0.951048 -0.309044 0
    outer loop
      vertex -11.7378 -2.49494 13
      vertex -10.9625 -4.88084 3
      vertex -10.9625 -4.88084 13
    endloop
  endfacet
  facet normal 0.743147 -0.669128 0
    outer loop
      vertex 8.02957 -8.91774 13
      vertex 9.7082 -7.05342 3
      vertex 9.7082 -7.05342 13
    endloop
  endfacet
  facet normal 0.743147 -0.669128 0
    outer loop
      vertex 9.7082 -7.05342 3
      vertex 8.02957 -8.91774 13
      vertex 8.02957 -8.91774 3
    endloop
  endfacet
  facet normal 0.207918 -0.978146 0
    outer loop
      vertex 1.25434 -11.9343 3
      vertex 3.7082 -11.4127 13
      vertex 1.25434 -11.9343 13
    endloop
  endfacet
  facet normal 0.207918 -0.978146 0
    outer loop
      vertex 3.7082 -11.4127 13
      vertex 1.25434 -11.9343 3
      vertex 3.7082 -11.4127 3
    endloop
  endfacet
  facet normal -0.406745 -0.913542 0
    outer loop
      vertex -6 -10.3923 3
      vertex -3.7082 -11.4127 13
      vertex -6 -10.3923 13
    endloop
  endfacet
  facet normal -0.406745 -0.913542 -0
    outer loop
      vertex -3.7082 -11.4127 13
      vertex -6 -10.3923 3
      vertex -3.7082 -11.4127 3
    endloop
  endfacet
  facet normal 0.994523 0.104517 0
    outer loop
      vertex 12 0 13
      vertex 11.7378 2.49494 3
      vertex 11.7378 2.49494 13
    endloop
  endfacet
  facet normal 0.994523 0.104517 0
    outer loop
      vertex 11.7378 2.49494 3
      vertex 12 0 13
      vertex 12 0 3
    endloop
  endfacet
  facet normal 0.587783 -0.809019 0
    outer loop
      vertex 6 -10.3923 3
      vertex 8.02957 -8.91774 13
      vertex 6 -10.3923 13
    endloop
  endfacet
  facet normal 0.587783 -0.809019 0
    outer loop
      vertex 8.02957 -8.91774 13
      vertex 6 -10.3923 3
      vertex 8.02957 -8.91774 3
    endloop
  endfacet
  facet normal 0 -1 0
    outer loop
      vertex -1.25434 -11.9343 3
      vertex 1.25434 -11.9343 13
      vertex -1.25434 -11.9343 13
    endloop
  endfacet
  facet normal 0 -1 -0
    outer loop
      vertex 1.25434 -11.9343 13
      vertex -1.25434 -11.9343 3
      vertex 1.25434 -11.9343 3
    endloop
  endfacet
  facet normal 0.406745 -0.913542 0
    outer loop
      vertex 3.7082 -11.4127 3
      vertex 6 -10.3923 13
      vertex 3.7082 -11.4127 13
    endloop
  endfacet
  facet normal 0.406745 -0.913542 0
    outer loop
      vertex 6 -10.3923 13
      vertex 3.7082 -11.4127 3
      vertex 6 -10.3923 3
    endloop
  endfacet
  facet normal -0.994523 -0.104517 0
    outer loop
      vertex -11.7378 -2.49494 3
      vertex -12 0 13
      vertex -12 0 3
    endloop
  endfacet
  facet normal -0.994523 -0.104517 0
    outer loop
      vertex -12 0 13
      vertex -11.7378 -2.49494 3
      vertex -11.7378 -2.49494 13
    endloop
  endfacet
  facet normal -0.866032 -0.499988 0
    outer loop
      vertex -9.7082 -7.05342 3
      vertex -10.9625 -4.88084 13
      vertex -10.9625 -4.88084 3
    endloop
  endfacet
  facet normal -0.866032 -0.499988 0
    outer loop
      vertex -10.9625 -4.88084 13
      vertex -9.7082 -7.05342 3
      vertex -9.7082 -7.05342 13
    endloop
  endfacet
  facet normal -0.587783 -0.809019 0
    outer loop
      vertex -8.02957 -8.91774 3
      vertex -6 -10.3923 13
      vertex -8.02957 -8.91774 13
    endloop
  endfacet
  facet normal -0.587783 -0.809019 -0
    outer loop
      vertex -6 -10.3923 13
      vertex -8.02957 -8.91774 3
      vertex -6 -10.3923 3
    endloop
  endfacet
  facet normal -0.207918 -0.978146 0
    outer loop
      vertex -3.7082 -11.4127 3
      vertex -1.25434 -11.9343 13
      vertex -3.7082 -11.4127 13
    endloop
  endfacet
  facet normal -0.207918 -0.978146 -0
    outer loop
      vertex -1.25434 -11.9343 13
      vertex -3.7082 -11.4127 3
      vertex -1.25434 -11.9343 3
    endloop
  endfacet
  facet normal -0.743147 -0.669128 0
    outer loop
      vertex -8.02957 -8.91774 3
      vertex -9.7082 -7.05342 13
      vertex -9.7082 -7.05342 3
    endloop
  endfacet
  facet normal -0.743147 -0.669128 0
    outer loop
      vertex -9.7082 -7.05342 13
      vertex -8.02957 -8.91774 3
      vertex -8.02957 -8.91774 13
    endloop
  endfacet
  facet normal 0.994523 -0.104517 0
    outer loop
      vertex 11.7378 -2.49494 13
      vertex 12 0 3
      vertex 12 0 13
    endloop
  endfacet
  facet normal 0.994523 -0.104517 0
    outer loop
      vertex 12 0 3
      vertex 11.7378 -2.49494 13
      vertex 11.7378 -2.49494 3
    endloop
  endfacet
  facet normal 0.587783 0.809019 -0
    outer loop
      vertex 8.02957 8.91774 3
      vertex 6 10.3923 13
      vertex 8.02957 8.91774 13
    endloop
  endfacet
  facet normal 0.587783 0.809019 0
    outer loop
      vertex 6 10.3923 13
      vertex 8.02957 8.91774 3
      vertex 6 10.3923 3
    endloop
  endfacet
  facet normal 0.951048 0.309044 0
    outer loop
      vertex 11.7378 2.49494 13
      vertex 10.9625 4.88084 3
      vertex 10.9625 4.88084 13
    endloop
  endfacet
  facet normal 0.951048 0.309044 0
    outer loop
      vertex 10.9625 4.88084 3
      vertex 11.7378 2.49494 13
      vertex 11.7378 2.49494 3
    endloop
  endfacet
  facet normal -0.207918 0.978146 0
    outer loop
      vertex -1.25434 11.9343 3
      vertex -3.7082 11.4127 13
      vertex -1.25434 11.9343 13
    endloop
  endfacet
  facet normal -0.207918 0.978146 0
    outer loop
      vertex -3.7082 11.4127 13
      vertex -1.25434 11.9343 3
      vertex -3.7082 11.4127 3
    endloop
  endfacet
  facet normal 0.951048 -0.309044 0
    outer loop
      vertex 10.9625 -4.88084 13
      vertex 11.7378 -2.49494 3
      vertex 11.7378 -2.49494 13
    endloop
  endfacet
  facet normal 0.951048 -0.309044 0
    outer loop
      vertex 11.7378 -2.49494 3
      vertex 10.9625 -4.88084 13
      vertex 10.9625 -4.88084 3
    endloop
  endfacet
  facet normal 0 0 1
    outer loop
      vertex 12 0 3
      vertex 30 0 3
      vertex 29.3444 6.23735 3
    endloop
  endfacet
  facet normal 0 0 1
    outer loop
      vertex 11.7378 2.49494 3
      vertex 29.3444 6.23735 3
      vertex 27.4064 12.2021 3
    endloop
  endfacet
  facet normal 0 0 1
    outer loop
      vertex 30 0 3
      vertex 12 0 3
      vertex 29.3444 -6.23735 3
    endloop
  endfacet
  facet normal 0 0 1
    outer loop
      vertex 10.9625 4.88084 3
      vertex 27.4064 12.2021 3
      vertex 24.2705 17.6336 3
    endloop
  endfacet
  facet normal -0 0 1
    outer loop
      vertex 11.7378 -2.49494 3
      vertex 29.3444 -6.23735 3
      vertex 12 0 3
    endloop
  endfacet
  facet normal 0 0 1
    outer loop
      vertex 9.7082 7.05342 3
      vertex 24.2705 17.6336 3
      vertex 20.0739 22.2943 3
    endloop
  endfacet
  facet normal 0 0 1
    outer loop
      vertex 29.3444 -6.23735 3
      vertex 11.7378 -2.49494 3
      vertex 27.4064 -12.2021 3
    endloop
  endfacet
  facet normal 0 0 1
    outer loop
      vertex 8.02957 8.91774 3
      vertex 20.0739 22.2943 3
      vertex 15 25.9808 3
    endloop
  endfacet
  facet normal -0 0 1
    outer loop
      vertex 10.9625 -4.88084 3
      vertex 27.4064 -12.2021 3
      vertex 11.7378 -2.49494 3
    endloop
  endfacet
  facet normal 0 0 1
    outer loop
      vertex 27.4064 -12.2021 3
      vertex 10.9625 -4.88084 3
      vertex 24.2705 -17.6336 3
    endloop
  endfacet
  facet normal 0 0 1
    outer loop
      vertex 29.3444 6.23735 3
      vertex 11.7378 2.49494 3
      vertex 12 0 3
    endloop
  endfacet
  facet normal 0 0 1
    outer loop
      vertex 27.4064 12.2021 3
      vertex 10.9625 4.88084 3
      vertex 11.7378 2.49494 3
    endloop
  endfacet
  facet normal 0 0 1
    outer loop
      vertex 24.2705 17.6336 3
      vertex 9.7082 7.05342 3
      vertex 10.9625 4.88084 3
    endloop
  endfacet
  facet normal 0 0 1
    outer loop
      vertex 6 10.3923 3
      vertex 15 25.9808 3
      vertex 9.27051 28.5317 3
    endloop
  endfacet
  facet normal 0 0 1
    outer loop
      vertex 20.0739 22.2943 3
      vertex 8.02957 8.91774 3
      vertex 9.7082 7.05342 3
    endloop
  endfacet
  facet normal 0 0 1
    outer loop
      vertex 15 25.9808 3
      vertex 6 10.3923 3
      vertex 8.02957 8.91774 3
    endloop
  endfacet
  facet normal 0 0 1
    outer loop
      vertex 9.27051 28.5317 3
      vertex 3.7082 11.4127 3
      vertex 6 10.3923 3
    endloop
  endfacet
  facet normal 0 0 1
    outer loop
      vertex 3.13585 29.8357 3
      vertex 3.7082 11.4127 3
      vertex 9.27051 28.5317 3
    endloop
  endfacet
  facet normal 0 0 1
    outer loop
      vertex 3.13585 29.8357 3
      vertex 1.25434 11.9343 3
      vertex 3.7082 11.4127 3
    endloop
  endfacet
  facet normal 0 0 1
    outer loop
      vertex 3.13585 29.8357 3
      vertex -1.25434 11.9343 3
      vertex 1.25434 11.9343 3
    endloop
  endfacet
  facet normal -0 0 1
    outer loop
      vertex -3.13585 29.8357 3
      vertex -1.25434 11.9343 3
      vertex 3.13585 29.8357 3
    endloop
  endfacet
  facet normal 0 0 1
    outer loop
      vertex -3.13585 29.8357 3
      vertex -3.7082 11.4127 3
      vertex -1.25434 11.9343 3
    endloop
  endfacet
  facet normal -0 0 1
    outer loop
      vertex -9.27051 28.5317 3
      vertex -3.7082 11.4127 3
      vertex -3.13585 29.8357 3
    endloop
  endfacet
  facet normal 0 0 1
    outer loop
      vertex -3.7082 11.4127 3
      vertex -9.27051 28.5317 3
      vertex -6 10.3923 3
    endloop
  endfacet
  facet normal -0 0 1
    outer loop
      vertex -15 25.9808 3
      vertex -6 10.3923 3
      vertex -9.27051 28.5317 3
    endloop
  endfacet
  facet normal 0 0 1
    outer loop
      vertex -6 10.3923 3
      vertex -15 25.9808 3
      vertex -8.02957 8.91774 3
    endloop
  endfacet
  facet normal -0 0 1
    outer loop
      vertex -20.0739 22.2943 3
      vertex -8.02957 8.91774 3
      vertex -15 25.9808 3
    endloop
  endfacet
  facet normal 0 0 1
    outer loop
      vertex -8.02957 8.91774 3
      vertex -20.0739 22.2943 3
      vertex -9.7082 7.05342 3
    endloop
  endfacet
  facet normal -0 0 1
    outer loop
      vertex -24.2705 17.6336 3
      vertex -9.7082 7.05342 3
      vertex -20.0739 22.2943 3
    endloop
  endfacet
  facet normal 0 0 1
    outer loop
      vertex -9.7082 7.05342 3
      vertex -24.2705 17.6336 3
      vertex -10.9625 4.88084 3
    endloop
  endfacet
  facet normal -0 0 1
    outer loop
      vertex 9.7082 -7.05342 3
      vertex 24.2705 -17.6336 3
      vertex 10.9625 -4.88084 3
    endloop
  endfacet
  facet normal 0 0 1
    outer loop
      vertex 24.2705 -17.6336 3
      vertex 9.7082 -7.05342 3
      vertex 20.0739 -22.2943 3
    endloop
  endfacet
  facet normal -0 0 1
    outer loop
      vertex 8.02957 -8.91774 3
      vertex 20.0739 -22.2943 3
      vertex 9.7082 -7.05342 3
    endloop
  endfacet
  facet normal 0 0 1
    outer loop
      vertex 20.0739 -22.2943 3
      vertex 8.02957 -8.91774 3
      vertex 15 -25.9808 3
    endloop
  endfacet
  facet normal -0 0 1
    outer loop
      vertex 6 -10.3923 3
      vertex 15 -25.9808 3
      vertex 8.02957 -8.91774 3
    endloop
  endfacet
  facet normal 0 0 1
    outer loop
      vertex 15 -25.9808 3
      vertex 6 -10.3923 3
      vertex 9.27051 -28.5317 3
    endloop
  endfacet
  facet normal -0 0 1
    outer loop
      vertex 3.7082 -11.4127 3
      vertex 9.27051 -28.5317 3
      vertex 6 -10.3923 3
    endloop
  endfacet
  facet normal 0 0 1
    outer loop
      vertex 3.7082 -11.4127 3
      vertex 3.13585 -29.8357 3
      vertex 9.27051 -28.5317 3
    endloop
  endfacet
  facet normal -0 0 1
    outer loop
      vertex 1.25434 -11.9343 3
      vertex 3.13585 -29.8357 3
      vertex 3.7082 -11.4127 3
    endloop
  endfacet
  facet normal -0 0 1
    outer loop
      vertex -1.25434 -11.9343 3
      vertex 3.13585 -29.8357 3
      vertex 1.25434 -11.9343 3
    endloop
  endfacet
  facet normal 0 0 1
    outer loop
      vertex -1.25434 -11.9343 3
      vertex -3.13585 -29.8357 3
      vertex 3.13585 -29.8357 3
    endloop
  endfacet
  facet normal 0 0 1
    outer loop
      vertex -3.7082 -11.4127 3
      vertex -3.13585 -29.8357 3
      vertex -1.25434 -11.9343 3
    endloop
  endfacet
  facet normal 0 0 1
    outer loop
      vertex -9.27051 -28.5317 3
      vertex -3.7082 -11.4127 3
      vertex -6 -10.3923 3
    endloop
  endfacet
  facet normal 0 0 1
    outer loop
      vertex -15 -25.9808 3
      vertex -6 -10.3923 3
      vertex -8.02957 -8.91774 3
    endloop
  endfacet
  facet normal 0 0 1
    outer loop
      vertex -3.7082 -11.4127 3
      vertex -9.27051 -28.5317 3
      vertex -3.13585 -29.8357 3
    endloop
  endfacet
  facet normal 0 0 1
    outer loop
      vertex -20.0739 -22.2943 3
      vertex -8.02957 -8.91774 3
      vertex -9.7082 -7.05342 3
    endloop
  endfacet
  facet normal 0 0 1
    outer loop
      vertex -24.2705 -17.6336 3
      vertex -9.7082 -7.05342 3
      vertex -10.9625 -4.88084 3
    endloop
  endfacet
  facet normal 0 0 1
    outer loop
      vertex -27.4064 -12.2021 3
      vertex -10.9625 -4.88084 3
      vertex -11.7378 -2.49494 3
    endloop
  endfacet
  facet normal 0 0 1
    outer loop
      vertex -29.3444 -6.23735 3
      vertex -11.7378 -2.49494 3
      vertex -12 0 3
    endloop
  endfacet
  facet normal -0 0 1
    outer loop
      vertex -27.4064 12.2021 3
      vertex -10.9625 4.88084 3
      vertex -24.2705 17.6336 3
    endloop
  endfacet
  facet normal 0 0 1
    outer loop
      vertex -6 -10.3923 3
      vertex -15 -25.9808 3
      vertex -9.27051 -28.5317 3
    endloop
  endfacet
  facet normal 0 0 1
    outer loop
      vertex -10.9625 4.88084 3
      vertex -27.4064 12.2021 3
      vertex -11.7378 2.49494 3
    endloop
  endfacet
  facet normal 0 0 1
    outer loop
      vertex -8.02957 -8.91774 3
      vertex -20.0739 -22.2943 3
      vertex -15 -25.9808 3
    endloop
  endfacet
  facet normal -0 0 1
    outer loop
      vertex -29.3444 6.23735 3
      vertex -11.7378 2.49494 3
      vertex -27.4064 12.2021 3
    endloop
  endfacet
  facet normal 0 0 1
    outer loop
      vertex -9.7082 -7.05342 3
      vertex -24.2705 -17.6336 3
      vertex -20.0739 -22.2943 3
    endloop
  endfacet
  facet normal 0 0 1
    outer loop
      vertex -11.7378 2.49494 3
      vertex -29.3444 6.23735 3
      vertex -12 0 3
    endloop
  endfacet
  facet normal 0 0 1
    outer loop
      vertex -10.9625 -4.88084 3
      vertex -27.4064 -12.2021 3
      vertex -24.2705 -17.6336 3
    endloop
  endfacet
  facet normal 0 0 1
    outer loop
      vertex -30 0 3
      vertex -12 0 3
      vertex -29.3444 6.23735 3
    endloop
  endfacet
  facet normal 0 0 1
    outer loop
      vertex -11.7378 -2.49494 3
      vertex -29.3444 -6.23735 3
      vertex -27.4064 -12.2021 3
    endloop
  endfacet
  facet normal 0 0 1
    outer loop
      vertex -12 0 3
      vertex -30 0 3
      vertex -29.3444 -6.23735 3
    endloop
  endfacet
  facet normal 0.866032 0.499988 0
    outer loop
      vertex 10.9625 4.88084 13
      vertex 9.7082 7.05342 3
      vertex 9.7082 7.05342 13
    endloop
  endfacet
  facet normal 0.866032 0.499988 0
    outer loop
      vertex 9.7082 7.05342 3
      vertex 10.9625 4.88084 13
      vertex 10.9625 4.88084 3
    endloop
  endfacet
  facet normal -0.994523 0.104517 0
    outer loop
      vertex -12 0 3
      vertex -11.7378 2.49494 13
      vertex -11.7378 2.49494 3
    endloop
  endfacet
  facet normal -0.994523 0.104517 0
    outer loop
      vertex -11.7378 2.49494 13
      vertex -12 0 3
      vertex -12 0 13
    endloop
  endfacet
  facet normal 0.207918 0.978146 -0
    outer loop
      vertex 3.7082 11.4127 3
      vertex 1.25434 11.9343 13
      vertex 3.7082 11.4127 13
    endloop
  endfacet
  facet normal 0.207918 0.978146 0
    outer loop
      vertex 1.25434 11.9343 13
      vertex 3.7082 11.4127 3
      vertex 1.25434 11.9343 3
    endloop
  endfacet
  facet normal 0.406745 0.913542 -0
    outer loop
      vertex 6 10.3923 3
      vertex 3.7082 11.4127 13
      vertex 6 10.3923 13
    endloop
  endfacet
  facet normal 0.406745 0.913542 0
    outer loop
      vertex 3.7082 11.4127 13
      vertex 6 10.3923 3
      vertex 3.7082 11.4127 3
    endloop
  endfacet
  facet normal -0.406745 0.913542 0
    outer loop
      vertex -3.7082 11.4127 3
      vertex -6 10.3923 13
      vertex -3.7082 11.4127 13
    endloop
  endfacet
  facet normal -0.406745 0.913542 0
    outer loop
      vertex -6 10.3923 13
      vertex -3.7082 11.4127 3
      vertex -6 10.3923 3
    endloop
  endfacet
  facet normal 0 1 -0
    outer loop
      vertex 1.25434 11.9343 3
      vertex -1.25434 11.9343 13
      vertex 1.25434 11.9343 13
    endloop
  endfacet
  facet normal 0 1 0
    outer loop
      vertex -1.25434 11.9343 13
      vertex 1.25434 11.9343 3
      vertex -1.25434 11.9343 3
    endloop
  endfacet
  facet normal -0.951048 0.309044 0
    outer loop
      vertex -11.7378 2.49494 3
      vertex -10.9625 4.88084 13
      vertex -10.9625 4.88084 3
    endloop
  endfacet
  facet normal -0.951048 0.309044 0
    outer loop
      vertex -10.9625 4.88084 13
      vertex -11.7378 2.49494 3
      vertex -11.7378 2.49494 13
    endloop
  endfacet
  facet normal -0.743147 0.669128 0
    outer loop
      vertex -9.7082 7.05342 3
      vertex -8.02957 8.91774 13
      vertex -8.02957 8.91774 3
    endloop
  endfacet
  facet normal -0.743147 0.669128 0
    outer loop
      vertex -8.02957 8.91774 13
      vertex -9.7082 7.05342 3
      vertex -9.7082 7.05342 13
    endloop
  endfacet
  facet normal -0.866032 0.499988 0
    outer loop
      vertex -10.9625 4.88084 3
      vertex -9.7082 7.05342 13
      vertex -9.7082 7.05342 3
    endloop
  endfacet
  facet normal -0.866032 0.499988 0
    outer loop
      vertex -9.7082 7.05342 13
      vertex -10.9625 4.88084 3
      vertex -10.9625 4.88084 13
    endloop
  endfacet
  facet normal 0.743147 0.669128 0
    outer loop
      vertex 9.7082 7.05342 13
      vertex 8.02957 8.91774 3
      vertex 8.02957 8.91774 13
    endloop
  endfacet
  facet normal 0.743147 0.669128 0
    outer loop
      vertex 8.02957 8.91774 3
      vertex 9.7082 7.05342 13
      vertex 9.7082 7.05342 3
    endloop
  endfacet
  facet normal -0.587783 0.809019 0
    outer loop
      vertex -6 10.3923 3
      vertex -8.02957 8.91774 13
      vertex -6 10.3923 13
    endloop
  endfacet
  facet normal -0.587783 0.809019 0
    outer loop
      vertex -8.02957 8.91774 13
      vertex -6 10.3923 3
      vertex -8.02957 8.91774 3
    endloop
  endfacet
  facet normal 0.994521 -0.104533 0
    outer loop
      vertex 29.3444 -6.23735 3
      vertex 30 0 0
      vertex 30 0 3
    endloop
  endfacet
  facet normal 0.994521 -0.104533 0
    outer loop
      vertex 30 0 0
      vertex 29.3444 -6.23735 3
      vertex 29.3444 -6.23735 0
    endloop
  endfacet
  facet normal -0.994521 -0.104533 0
    outer loop
      vertex -29.3444 -6.23735 0
      vertex -30 0 3
      vertex -30 0 0
    endloop
  endfacet
  facet normal -0.994521 -0.104533 0
    outer loop
      vertex -30 0 3
      vertex -29.3444 -6.23735 0
      vertex -29.3444 -6.23735 3
    endloop
  endfacet
  facet normal 0 -1 0
    outer loop
      vertex -3.13585 -29.8357 0
      vertex 3.13585 -29.8357 3
      vertex -3.13585 -29.8357 3
    endloop
  endfacet
  facet normal 0 -1 -0
    outer loop
      vertex 3.13585 -29.8357 3
      vertex -3.13585 -29.8357 0
      vertex 3.13585 -29.8357 0
    endloop
  endfacet
  facet normal 0 1 -0
    outer loop
      vertex 3.13585 29.8357 0
      vertex -3.13585 29.8357 3
      vertex 3.13585 29.8357 3
    endloop
  endfacet
  facet normal 0 1 0
    outer loop
      vertex -3.13585 29.8357 3
      vertex 3.13585 29.8357 0
      vertex -3.13585 29.8357 0
    endloop
  endfacet
  facet normal 0.587795 -0.80901 0
    outer loop
      vertex 15 -25.9808 0
      vertex 20.0739 -22.2943 3
      vertex 15 -25.9808 3
    endloop
  endfacet
  facet normal 0.587795 -0.80901 0
    outer loop
      vertex 20.0739 -22.2943 3
      vertex 15 -25.9808 0
      vertex 20.0739 -22.2943 0
    endloop
  endfacet
  facet normal 0.406732 -0.913547 0
    outer loop
      vertex 9.27051 -28.5317 0
      vertex 15 -25.9808 3
      vertex 9.27051 -28.5317 3
    endloop
  endfacet
  facet normal 0.406732 -0.913547 0
    outer loop
      vertex 15 -25.9808 3
      vertex 9.27051 -28.5317 0
      vertex 15 -25.9808 0
    endloop
  endfacet
  facet normal -0.743138 -0.669138 0
    outer loop
      vertex -20.0739 -22.2943 0
      vertex -24.2705 -17.6336 3
      vertex -24.2705 -17.6336 0
    endloop
  endfacet
  facet normal -0.743138 -0.669138 0
    outer loop
      vertex -24.2705 -17.6336 3
      vertex -20.0739 -22.2943 0
      vertex -20.0739 -22.2943 3
    endloop
  endfacet
  facet normal -0.866024 -0.500003 0
    outer loop
      vertex -24.2705 -17.6336 0
      vertex -27.4064 -12.2021 3
      vertex -27.4064 -12.2021 0
    endloop
  endfacet
  facet normal -0.866024 -0.500003 0
    outer loop
      vertex -27.4064 -12.2021 3
      vertex -24.2705 -17.6336 0
      vertex -24.2705 -17.6336 3
    endloop
  endfacet
  facet normal -0.406732 -0.913547 0
    outer loop
      vertex -15 -25.9808 0
      vertex -9.27051 -28.5317 3
      vertex -15 -25.9808 3
    endloop
  endfacet
  facet normal -0.406732 -0.913547 -0
    outer loop
      vertex -9.27051 -28.5317 3
      vertex -15 -25.9808 0
      vertex -9.27051 -28.5317 0
    endloop
  endfacet
  facet normal 0.866024 -0.500003 0
    outer loop
      vertex 24.2705 -17.6336 3
      vertex 27.4064 -12.2021 0
      vertex 27.4064 -12.2021 3
    endloop
  endfacet
  facet normal 0.866024 -0.500003 0
    outer loop
      vertex 27.4064 -12.2021 0
      vertex 24.2705 -17.6336 3
      vertex 24.2705 -17.6336 0
    endloop
  endfacet
  facet normal 0.95106 -0.309008 0
    outer loop
      vertex 27.4064 -12.2021 3
      vertex 29.3444 -6.23735 0
      vertex 29.3444 -6.23735 3
    endloop
  endfacet
  facet normal 0.95106 -0.309008 0
    outer loop
      vertex 29.3444 -6.23735 0
      vertex 27.4064 -12.2021 3
      vertex 27.4064 -12.2021 0
    endloop
  endfacet
  facet normal 0.743138 -0.669138 0
    outer loop
      vertex 20.0739 -22.2943 3
      vertex 24.2705 -17.6336 0
      vertex 24.2705 -17.6336 3
    endloop
  endfacet
  facet normal 0.743138 -0.669138 0
    outer loop
      vertex 24.2705 -17.6336 0
      vertex 20.0739 -22.2943 3
      vertex 20.0739 -22.2943 0
    endloop
  endfacet
  facet normal 0.207917 -0.978146 0
    outer loop
      vertex 3.13585 -29.8357 0
      vertex 9.27051 -28.5317 3
      vertex 3.13585 -29.8357 3
    endloop
  endfacet
  facet normal 0.207917 -0.978146 0
    outer loop
      vertex 9.27051 -28.5317 3
      vertex 3.13585 -29.8357 0
      vertex 9.27051 -28.5317 0
    endloop
  endfacet
  facet normal -0.95106 -0.309008 0
    outer loop
      vertex -27.4064 -12.2021 0
      vertex -29.3444 -6.23735 3
      vertex -29.3444 -6.23735 0
    endloop
  endfacet
  facet normal -0.95106 -0.309008 0
    outer loop
      vertex -29.3444 -6.23735 3
      vertex -27.4064 -12.2021 0
      vertex -27.4064 -12.2021 3
    endloop
  endfacet
  facet normal 0 0 -1
    outer loop
      vertex 29.3444 -6.23735 0
      vertex 29.3444 6.23735 0
      vertex 30 0 0
    endloop
  endfacet
  facet normal 0 0 -1
    outer loop
      vertex 27.4064 -12.2021 0
      vertex 29.3444 6.23735 0
      vertex 29.3444 -6.23735 0
    endloop
  endfacet
  facet normal 0 0 -1
    outer loop
      vertex 27.4064 -12.2021 0
      vertex 27.4064 12.2021 0
      vertex 29.3444 6.23735 0
    endloop
  endfacet
  facet normal 0 0 -1
    outer loop
      vertex 24.2705 -17.6336 0
      vertex 27.4064 12.2021 0
      vertex 27.4064 -12.2021 0
    endloop
  endfacet
  facet normal 0 0 -1
    outer loop
      vertex 24.2705 -17.6336 0
      vertex 24.2705 17.6336 0
      vertex 27.4064 12.2021 0
    endloop
  endfacet
  facet normal 0 0 -1
    outer loop
      vertex 20.0739 -22.2943 0
      vertex 24.2705 17.6336 0
      vertex 24.2705 -17.6336 0
    endloop
  endfacet
  facet normal 0 0 -1
    outer loop
      vertex 20.0739 -22.2943 0
      vertex 20.0739 22.2943 0
      vertex 24.2705 17.6336 0
    endloop
  endfacet
  facet normal 0 0 -1
    outer loop
      vertex 15 -25.9808 0
      vertex 20.0739 22.2943 0
      vertex 20.0739 -22.2943 0
    endloop
  endfacet
  facet normal 0 0 -1
    outer loop
      vertex 15 -25.9808 0
      vertex 15 25.9808 0
      vertex 20.0739 22.2943 0
    endloop
  endfacet
  facet normal 0 0 -1
    outer loop
      vertex 9.27051 -28.5317 0
      vertex 15 25.9808 0
      vertex 15 -25.9808 0
    endloop
  endfacet
  facet normal 0 0 -1
    outer loop
      vertex 9.27051 -28.5317 0
      vertex 9.27051 28.5317 0
      vertex 15 25.9808 0
    endloop
  endfacet
  facet normal 0 0 -1
    outer loop
      vertex 3.13585 -29.8357 0
      vertex 9.27051 28.5317 0
      vertex 9.27051 -28.5317 0
    endloop
  endfacet
  facet normal 0 0 -1
    outer loop
      vertex 3.13585 -29.8357 0
      vertex 3.13585 29.8357 0
      vertex 9.27051 28.5317 0
    endloop
  endfacet
  facet normal 0 0 -1
    outer loop
      vertex -3.13585 -29.8357 0
      vertex 3.13585 29.8357 0
      vertex 3.13585 -29.8357 0
    endloop
  endfacet
  facet normal 0 0 -1
    outer loop
      vertex -3.13585 -29.8357 0
      vertex -3.13585 29.8357 0
      vertex 3.13585 29.8357 0
    endloop
  endfacet
  facet normal 0 0 -1
    outer loop
      vertex -9.27051 -28.5317 0
      vertex -3.13585 29.8357 0
      vertex -3.13585 -29.8357 0
    endloop
  endfacet
  facet normal 0 0 -1
    outer loop
      vertex -9.27051 -28.5317 0
      vertex -9.27051 28.5317 0
      vertex -3.13585 29.8357 0
    endloop
  endfacet
  facet normal 0 0 -1
    outer loop
      vertex -15 -25.9808 0
      vertex -9.27051 28.5317 0
      vertex -9.27051 -28.5317 0
    endloop
  endfacet
  facet normal 0 0 -1
    outer loop
      vertex -15 -25.9808 0
      vertex -15 25.9808 0
      vertex -9.27051 28.5317 0
    endloop
  endfacet
  facet normal 0 0 -1
    outer loop
      vertex -20.0739 -22.2943 0
      vertex -15 25.9808 0
      vertex -15 -25.9808 0
    endloop
  endfacet
  facet normal 0 0 -1
    outer loop
      vertex -20.0739 -22.2943 0
      vertex -20.0739 22.2943 0
      vertex -15 25.9808 0
    endloop
  endfacet
  facet normal 0 0 -1
    outer loop
      vertex -24.2705 -17.6336 0
      vertex -20.0739 22.2943 0
      vertex -20.0739 -22.2943 0
    endloop
  endfacet
  facet normal 0 0 -1
    outer loop
      vertex -24.2705 -17.6336 0
      vertex -24.2705 17.6336 0
      vertex -20.0739 22.2943 0
    endloop
  endfacet
  facet normal 0 0 -1
    outer loop
      vertex -27.4064 -12.2021 0
      vertex -24.2705 17.6336 0
      vertex -24.2705 -17.6336 0
    endloop
  endfacet
  facet normal 0 0 -1
    outer loop
      vertex -27.4064 -12.2021 0
      vertex -27.4064 12.2021 0
      vertex -24.2705 17.6336 0
    endloop
  endfacet
  facet normal 0 0 -1
    outer loop
      vertex -29.3444 -6.23735 0
      vertex -27.4064 12.2021 0
      vertex -27.4064 -12.2021 0
    endloop
  endfacet
  facet normal 0 0 -1
    outer loop
      vertex -29.3444 -6.23735 0
      vertex -29.3444 6.23735 0
      vertex -27.4064 12.2021 0
    endloop
  endfacet
  facet normal 0 -0 -1
    outer loop
      vertex -29.3444 6.23735 0
      vertex -29.3444 -6.23735 0
      vertex -30 0 0
    endloop
  endfacet
  facet normal -0.587795 -0.80901 0
    outer loop
      vertex -20.0739 -22.2943 0
      vertex -15 -25.9808 3
      vertex -20.0739 -22.2943 3
    endloop
  endfacet
  facet normal -0.587795 -0.80901 -0
    outer loop
      vertex -15 -25.9808 3
      vertex -20.0739 -22.2943 0
      vertex -15 -25.9808 0
    endloop
  endfacet
  facet normal -0.207917 -0.978146 0
    outer loop
      vertex -9.27051 -28.5317 0
      vertex -3.13585 -29.8357 3
      vertex -9.27051 -28.5317 3
    endloop
  endfacet
  facet normal -0.207917 -0.978146 -0
    outer loop
      vertex -3.13585 -29.8357 3
      vertex -9.27051 -28.5317 0
      vertex -3.13585 -29.8357 0
    endloop
  endfacet
  facet normal 0.994521 0.104533 0
    outer loop
      vertex 30 0 3
      vertex 29.3444 6.23735 0
      vertex 29.3444 6.23735 3
    endloop
  endfacet
  facet normal 0.994521 0.104533 0
    outer loop
      vertex 29.3444 6.23735 0
      vertex 30 0 3
      vertex 30 0 0
    endloop
  endfacet
  facet normal 0.207917 0.978146 -0
    outer loop
      vertex 9.27051 28.5317 0
      vertex 3.13585 29.8357 3
      vertex 9.27051 28.5317 3
    endloop
  endfacet
  facet normal 0.207917 0.978146 0
    outer loop
      vertex 3.13585 29.8357 3
      vertex 9.27051 28.5317 0
      vertex 3.13585 29.8357 0
    endloop
  endfacet
  facet normal 0.743138 0.669138 0
    outer loop
      vertex 24.2705 17.6336 3
      vertex 20.0739 22.2943 0
      vertex 20.0739 22.2943 3
    endloop
  endfacet
  facet normal 0.743138 0.669138 0
    outer loop
      vertex 20.0739 22.2943 0
      vertex 24.2705 17.6336 3
      vertex 24.2705 17.6336 0
    endloop
  endfacet
  facet normal 0.95106 0.309008 0
    outer loop
      vertex 29.3444 6.23735 3
      vertex 27.4064 12.2021 0
      vertex 27.4064 12.2021 3
    endloop
  endfacet
  facet normal 0.95106 0.309008 0
    outer loop
      vertex 27.4064 12.2021 0
      vertex 29.3444 6.23735 3
      vertex 29.3444 6.23735 0
    endloop
  endfacet
  facet normal 0.866024 0.500003 0
    outer loop
      vertex 27.4064 12.2021 3
      vertex 24.2705 17.6336 0
      vertex 24.2705 17.6336 3
    endloop
  endfacet
  facet normal 0.866024 0.500003 0
    outer loop
      vertex 24.2705 17.6336 0
      vertex 27.4064 12.2021 3
      vertex 27.4064 12.2021 0
    endloop
  endfacet
  facet normal -0.866024 0.500003 0
    outer loop
      vertex -27.4064 12.2021 0
      vertex -24.2705 17.6336 3
      vertex -24.2705 17.6336 0
    endloop
  endfacet
  facet normal -0.866024 0.500003 0
    outer loop
      vertex -24.2705 17.6336 3
      vertex -27.4064 12.2021 0
      vertex -27.4064 12.2021 3
    endloop
  endfacet
  facet normal -0.994521 0.104533 0
    outer loop
      vertex -30 0 0
      vertex -29.3444 6.23735 3
      vertex -29.3444 6.23735 0
    endloop
  endfacet
  facet normal -0.994521 0.104533 0
    outer loop
      vertex -29.3444 6.23735 3
      vertex -30 0 0
      vertex -30 0 3
    endloop
  endfacet
  facet normal 0.587795 0.80901 -0
    outer loop
      vertex 20.0739 22.2943 0
      vertex 15 25.9808 3
      vertex 20.0739 22.2943 3
    endloop
  endfacet
  facet normal 0.587795 0.80901 0
    outer loop
      vertex 15 25.9808 3
      vertex 20.0739 22.2943 0
      vertex 15 25.9808 0
    endloop
  endfacet
  facet normal 0.406732 0.913547 -0
    outer loop
      vertex 15 25.9808 0
      vertex 9.27051 28.5317 3
      vertex 15 25.9808 3
    endloop
  endfacet
  facet normal 0.406732 0.913547 0
    outer loop
      vertex 9.27051 28.5317 3
      vertex 15 25.9808 0
      vertex 9.27051 28.5317 0
    endloop
  endfacet
  facet normal -0.406732 0.913547 0
    outer loop
      vertex -9.27051 28.5317 0
      vertex -15 25.9808 3
      vertex -9.27051 28.5317 3
    endloop
  endfacet
  facet normal -0.406732 0.913547 0
    outer loop
      vertex -15 25.9808 3
      vertex -9.27051 28.5317 0
      vertex -15 25.9808 0
    endloop
  endfacet
  facet normal -0.743138 0.669138 0
    outer loop
      vertex -24.2705 17.6336 0
      vertex -20.0739 22.2943 3
      vertex -20.0739 22.2943 0
    endloop
  endfacet
  facet normal -0.743138 0.669138 0
    outer loop
      vertex -20.0739 22.2943 3
      vertex -24.2705 17.6336 0
      vertex -24.2705 17.6336 3
    endloop
  endfacet
  facet normal -0.95106 0.309008 0
    outer loop
      vertex -29.3444 6.23735 0
      vertex -27.4064 12.2021 3
      vertex -27.4064 12.2021 0
    endloop
  endfacet
  facet normal -0.95106 0.309008 0
    outer loop
      vertex -27.4064 12.2021 3
      vertex -29.3444 6.23735 0
      vertex -29.3444 6.23735 3
    endloop
  endfacet
  facet normal -0.587795 0.80901 0
    outer loop
      vertex -15 25.9808 0
      vertex -20.0739 22.2943 3
      vertex -15 25.9808 3
    endloop
  endfacet
  facet normal -0.587795 0.80901 0
    outer loop
      vertex -20.0739 22.2943 3
      vertex -15 25.9808 0
      vertex -20.0739 22.2943 0
    endloop
  endfacet
  facet normal -0.207917 0.978146 0
    outer loop
      vertex -3.13585 29.8357 0
      vertex -9.27051 28.5317 3
      vertex -3.13585 29.8357 3
    endloop
  endfacet
  facet normal -0.207917 0.978146 0
    outer loop
      vertex -9.27051 28.5317 3
      vertex -3.13585 29.8357 0
      vertex -9.27051 28.5317 0
    endloop
  endfacet
endsolid OpenSCAD_Model
